# xmcd CD database file
#
# Track frame offsets:
#	150
#	2942
#	23222
#	41622
#	55572
#	78597
#	98210
#	110607
#	125992
#	143312
#
# Disc length: 2127 seconds
#
# Revision: 1
# Processed by: cddbd v1.5PL3 Copyright (c) Steve Scherf et al.
# Submitted via: CDex 1.50
#
DISCID=7e084d0a
DTITLE=ARMAGEDDON - Embrace The Mystery
DYEAR=2000
DGENRE=Metal
TTITLE0=Awakening
TTITLE1=Broken Spell
TTITLE2=Blind Fury
TTITLE3=Worlds Apart
TTITLE4=Cry Of Fate
TTITLE5=Illusions Tale
TTITLE6=Moongate Climber
TTITLE7=Embrace The Mystery
TTITLE8=Sleep Of Innocence
TTITLE9=Grain Of Sand
EXTD=YEAR: 2000
EXTT0=
EXTT1=
EXTT2=
EXTT3=
EXTT4=
EXTT5=
EXTT6=
EXTT7=
EXTT8=
EXTT9=
PLAYORDER=
